<svg width="50" height="53" viewBox="0 0 50 53" fill="none" xmlns="http://www.w3.org/2000/svg">
<path d="M0.12563 7.49533L2.09105 46.001C2.16546 47.4799 3.38625 48.6408 4.86702 48.6408H16.6962C17.6608 48.6408 18.3823 47.7553 18.1875 46.8106L11.6426 15.6307C11.3652 14.2853 12.8707 13.2894 14.0003 14.0711L31.0372 25.86C31.9483 26.4904 31.9025 27.8518 30.9511 28.4196L20.1241 34.8814C19.4109 35.307 19.3993 36.3359 20.1026 36.7776L39.9475 48.6408C40.9757 49.2865 42.1467 48.0521 41.4479 47.0593L37.1152 41.4095C36.4209 40.4232 36.6396 39.0631 37.6081 38.3442L47.2689 31.1729C48.3763 30.3508 48.7134 28.8411 48.0609 27.626L34.0112 1.4645C33.4514 0.421994 32.2928 -0.151737 31.1243 0.0348349L2.46336 4.61095C1.06207 4.83468 0.0543215 6.07808 0.12563 7.49533Z" fill="#141526"/>
</svg>
