<svg width="217" height="57" viewBox="0 0 217 57" fill="none" xmlns="http://www.w3.org/2000/svg">
<path d="M78.2658 47.9999L67.308 31.501H65.4402V47.9999H55.7899V4.41772H73.2227C82.9976 4.41772 88.0407 10.457 88.0407 18.0527C88.0407 24.4655 84.6164 29.4464 77.8923 31.0029L90.3443 47.9999H78.2658ZM65.4402 13.1964V23.4071H71.7908C75.6509 23.4071 77.83 21.9129 77.83 18.3018C77.83 15.0642 75.6509 13.1964 71.7908 13.1964H65.4402ZM103.401 48.9338C95.9293 48.9338 89.7655 43.704 89.7655 33.6178C89.7655 23.5316 95.9293 18.3018 103.401 18.3018C108.07 18.3018 110.996 20.2318 112.802 23.1581H112.926V19.2357H122.328V47.9999H112.926V44.0775H112.802C110.996 47.0038 108.07 48.9338 103.401 48.9338ZM106.015 40.3419C109.813 40.3419 112.677 37.727 112.677 33.6178C112.677 29.5086 109.813 26.8937 106.015 26.8937C102.28 26.8937 99.4158 29.5086 99.4158 33.6178C99.4158 37.727 102.28 40.3419 106.015 40.3419ZM145.92 18.3018C152.271 18.3018 156.754 21.9751 156.754 30.1935V47.9999H147.415V32.8084C147.415 28.5125 145.609 26.5824 142.123 26.5824C138.947 26.5824 136.581 28.4502 136.581 33.5555V47.9999H127.18V19.2357H136.395V23.5939H136.519C138.511 20.2318 141.873 18.3018 145.92 18.3018ZM179.102 27.0805H173.187V35.7347C173.187 38.4119 173.872 39.2835 176.3 39.2835H177.358V47.9999H173.436C167.584 47.9999 163.786 45.1982 163.786 38.2873V27.0805H158.182V19.2357H163.786V7.71752H173.187V19.2357H179.102V27.0805ZM192.133 4.47998V13.9435H182.047V4.47998H192.133ZM182.421 47.9999V19.2357H191.822V47.9999H182.421ZM215.988 18.364V27.7653H215.178C208.89 27.7653 206.337 30.069 206.337 37.4157V47.9999H196.936V19.2357H206.15V25.0881H206.275C207.956 20.3564 211.256 18.364 215.801 18.364H215.988Z" fill="#141526"/>
<path d="M0.12563 7.49533L2.09105 46.001C2.16546 47.4799 3.38625 48.6408 4.86702 48.6408H16.6962C17.6608 48.6408 18.3823 47.7553 18.1875 46.8106L11.6426 15.6307C11.3652 14.2853 12.8707 13.2894 14.0003 14.0711L31.0372 25.86C31.9483 26.4904 31.9025 27.8518 30.9511 28.4196L20.1241 34.8814C19.4109 35.307 19.3993 36.3359 20.1026 36.7776L39.9475 48.6408C40.9757 49.2865 42.1467 48.0521 41.4479 47.0593L37.1152 41.4095C36.4209 40.4232 36.6396 39.0631 37.6081 38.3442L47.2689 31.1729C48.3763 30.3508 48.7134 28.8411 48.0609 27.626L34.0112 1.4645C33.4514 0.421994 32.2928 -0.151737 31.1243 0.0348349L2.46336 4.61095C1.06207 4.83468 0.0543215 6.07808 0.12563 7.49533Z" fill="#141526"/>
</svg>
