<svg width="371" height="199" viewBox="0 0 371 199" fill="none" xmlns="http://www.w3.org/2000/svg">
<g opacity="0.04">
<rect x="3.06445" y="3.47794" width="37.9723" height="37.9723" fill="#FFCA28"/>
<path d="M26.1191 35.0596L28.9149 33.2096C29.134 33.898 30.5214 35.5328 32.274 35.5328C34.0266 35.5328 34.8402 34.5756 34.8402 33.941C34.8402 32.2116 33.0507 31.6019 32.1911 31.309C32.051 31.2613 31.9356 31.222 31.8567 31.1876C31.8163 31.17 31.7551 31.1466 31.6765 31.1166C30.7205 30.7514 27.1936 29.4039 27.1936 25.498C27.1936 21.1958 31.3455 20.7011 32.2844 20.7011C32.8987 20.7011 35.8521 20.7764 37.323 23.5405L34.6107 25.4335C34.0161 24.2289 33.0282 23.8309 32.42 23.8309C30.9178 23.8309 30.6049 24.9322 30.6049 25.4335C30.6049 26.8401 32.237 27.4705 33.6151 28.0029C33.9756 28.1422 34.3188 28.2747 34.6107 28.4127C36.1129 29.1226 38.3245 30.2841 38.3245 33.941C38.3245 35.7726 36.7882 38.7379 32.9208 38.7379C27.7257 38.7379 26.3486 35.6188 26.1191 35.0596Z" fill="#3E3E3E"/>
<path d="M12.5576 35.4269L15.4715 33.5779C15.6999 34.2659 16.5871 35.5344 17.8745 35.5344C19.1618 35.5344 19.8207 34.2122 19.8207 33.5779V21.1079H23.4044V33.5779C23.4624 35.2979 22.5085 38.7379 18.2985 38.7379C14.4278 38.7379 12.8186 36.4374 12.5576 35.4269Z" fill="#3E3E3E"/>
</g>
<g opacity="0.2">
<path d="M62.7354 16.9792C62.7354 12.2533 62.7354 9.89037 63.6551 8.08532C64.4641 6.49755 65.755 5.20666 67.3427 4.39765C69.1478 3.47794 71.5107 3.47794 76.2366 3.47794H87.2064C91.9322 3.47794 94.2952 3.47794 96.1002 4.39765C97.688 5.20666 98.9789 6.49755 99.7879 8.08532C100.708 9.89037 100.708 12.2533 100.708 16.9792V27.949C100.708 32.6748 100.708 35.0378 99.7879 36.8428C98.9789 38.4306 97.688 39.7215 96.1002 40.5305C94.2952 41.4502 91.9322 41.4502 87.2064 41.4502H76.2366C71.5107 41.4502 69.1478 41.4502 67.3427 40.5305C65.755 39.7215 64.4641 38.4306 63.6551 36.8428C62.7354 35.0378 62.7354 32.6748 62.7354 27.949V16.9792Z" fill="white"/>
<path d="M81.724 17.651L77.0306 9.36799C77.1864 9.20933 77.3657 9.10526 77.545 9.03531C76.1609 9.49083 75.5258 11.0451 75.5258 11.0451L66.9515 26.1728C66.8309 26.6471 66.7974 27.0754 66.8125 27.4524H76.171L81.724 17.651Z" fill="#34A853"/>
<path d="M81.7241 17.651L87.2772 27.4524H96.6357C96.6508 27.0754 96.6173 26.6471 96.4966 26.1728L87.9223 11.0451C87.9223 11.0451 87.2856 9.49083 85.9032 9.03531C86.0808 9.10526 86.2618 9.20933 86.4176 9.36799L81.7241 17.651Z" fill="#FBBC05"/>
<path d="M81.7238 17.6513L86.4173 9.3683C86.2614 9.20964 86.0804 9.10557 85.9028 9.03562C85.6984 8.96908 85.4789 8.92472 85.2409 8.91278H84.9929H78.4546H78.2066C77.9703 8.92302 77.7491 8.96738 77.5447 9.03562C77.3671 9.10557 77.1861 9.20964 77.0303 9.3683L81.7238 17.6513Z" fill="#188038"/>
<path d="M76.1724 27.4524L71.5326 35.6416C71.5326 35.6416 71.3784 35.5665 71.1689 35.4113C71.8275 35.918 72.4676 36.0255 72.4676 36.0255H90.6902C91.6956 36.0255 91.9051 35.6416 91.9051 35.6416C91.9084 35.6399 91.9101 35.6382 91.9135 35.6365L87.2769 27.4524H76.1724Z" fill="#4285F4"/>
<path d="M76.1729 27.4524H66.8145C66.8614 28.5648 67.344 29.2148 67.344 29.2148L67.6958 29.8256C67.721 29.8614 67.7361 29.8819 67.7361 29.8819L68.5018 31.2263L70.221 34.2187C70.2713 34.3399 70.33 34.4507 70.392 34.5565C70.4154 34.5924 70.4372 34.6316 70.4623 34.6657C70.469 34.6759 70.4757 34.6862 70.4824 34.6964C70.6953 34.9967 70.9332 35.2287 71.1711 35.4113C71.3806 35.5682 71.5348 35.6416 71.5348 35.6416L76.1729 27.4524Z" fill="#1967D2"/>
<path d="M87.2773 27.4524H96.6358C96.5889 28.5648 96.1063 29.2148 96.1063 29.2148L95.7544 29.8256C95.7293 29.8614 95.7142 29.8819 95.7142 29.8819L94.9485 31.2263L93.2292 34.2187C93.179 34.3399 93.1203 34.4507 93.0583 34.5565C93.0349 34.5924 93.0131 34.6316 92.9879 34.6657C92.9812 34.6759 92.9745 34.6862 92.9678 34.6964C92.755 34.9967 92.5171 35.2287 92.2791 35.4113C92.0697 35.5682 91.9155 35.6416 91.9155 35.6416L87.2773 27.4524Z" fill="#EA4335"/>
</g>
<path d="M122.406 16.9792C122.406 12.2533 122.406 9.89037 123.325 8.08532C124.134 6.49755 125.425 5.20666 127.013 4.39765C128.818 3.47794 131.181 3.47794 135.907 3.47794H146.877C151.603 3.47794 153.966 3.47794 155.771 4.39765C157.358 5.20666 158.649 6.49755 159.458 8.08532C160.378 9.89037 160.378 12.2533 160.378 16.9792V27.949C160.378 32.6748 160.378 35.0378 159.458 36.8428C158.649 38.4306 157.358 39.7215 155.771 40.5305C153.966 41.4502 151.603 41.4502 146.877 41.4502H135.907C131.181 41.4502 128.818 41.4502 127.013 40.5305C125.425 39.7215 124.134 38.4306 123.325 36.8428C122.406 35.0378 122.406 32.6748 122.406 27.949V16.9792Z" fill="white"/>
<path d="M149.598 12.3241L141.479 18.6606L133.174 12.3241V12.3258L133.184 12.3343V21.2072L141.385 27.6807L149.598 21.4572V12.3241Z" fill="#EA4335"/>
<path d="M151.73 10.7827L149.598 12.324V21.4572L156.308 16.3057V13.2026C156.308 13.2026 155.493 8.77042 151.73 10.7827Z" fill="#FBBC05"/>
<path d="M149.598 21.4574V33.3032H154.741C154.741 33.3032 156.204 33.1525 156.309 31.4845V16.3059L149.598 21.4574Z" fill="#34A853"/>
<path d="M133.184 33.3132V21.207L133.174 21.1985L133.184 33.3132Z" fill="#C5221F"/>
<path d="M133.174 12.3257L131.053 10.793C127.29 8.78068 126.474 13.2111 126.474 13.2111V16.3143L133.174 21.1985V12.3257Z" fill="#C5221F"/>
<path d="M133.174 12.3257V21.1985L133.184 21.2071V12.3342L133.174 12.3257Z" fill="#C5221F"/>
<path d="M126.474 16.316V31.4946C126.578 33.1643 128.043 33.3133 128.043 33.3133H133.185L133.174 21.1986L126.474 16.316Z" fill="#4285F4"/>
<g opacity="0.2">
<circle cx="201.063" cy="22.4641" r="18.9861" fill="black"/>
<path fill-rule="evenodd" clip-rule="evenodd" d="M200.31 9.13029C200.766 8.82661 201.359 8.82661 201.815 9.13029L214.02 17.2672C214.397 17.5187 214.624 17.9422 214.624 18.3956V26.5325C214.624 26.9859 214.397 27.4094 214.02 27.6609L201.815 35.7978C201.359 36.1015 200.766 36.1015 200.31 35.7978L188.105 27.6609C187.728 27.4094 187.501 26.9859 187.501 26.5325V18.3956C187.501 17.9422 187.728 17.5187 188.105 17.2672L200.31 9.13029ZM190.213 20.9296L192.515 22.4641L190.213 23.9985V20.9296ZM191.302 26.5325L199.706 32.1354V27.2583L194.96 24.0939L191.302 26.5325ZM197.405 22.4641L201.063 24.9026L204.72 22.4641L201.063 20.0255L197.405 22.4641ZM202.419 17.6698L207.165 20.8342L210.823 18.3956L202.419 12.7927V17.6698ZM199.706 12.7927V17.6698L194.96 20.8342L191.302 18.3956L199.706 12.7927ZM211.912 20.9296L209.61 22.4641L211.912 23.9985V20.9296ZM210.823 26.5325L207.165 24.0939L202.419 27.2583V32.1354L210.823 26.5325Z" fill="white"/>
</g>
<g opacity="0.2">
<path fill-rule="evenodd" clip-rule="evenodd" d="M254.113 19.8657C253.917 19.6082 253.6 19.4723 253.278 19.5073C252.956 19.5423 252.676 19.7431 252.539 20.0369L244.56 36.0004C244.412 36.2962 244.428 36.6475 244.602 36.9288C244.776 37.2101 245.083 37.3814 245.413 37.3814H256.523C256.886 37.3899 257.221 37.1831 257.376 36.8539C259.772 31.8982 258.32 24.3632 254.113 19.8657Z" fill="url(#paint0_linear_564_4001)"/>
<path fill-rule="evenodd" clip-rule="evenodd" d="M259.965 5.34619C255.92 11.5737 255.453 19.4729 258.736 26.1341L264.092 36.8539C264.254 37.1772 264.584 37.3814 264.945 37.3815H276.053C276.383 37.3815 276.69 37.2102 276.864 36.9289C277.038 36.6475 277.054 36.2963 276.906 36.0004C276.906 36.0004 261.962 6.08836 261.587 5.3402C261.435 5.02944 261.119 4.83281 260.774 4.83408C260.428 4.83536 260.114 5.03432 259.965 5.34619Z" fill="#2684FF"/>
</g>
<g opacity="0.05">
<path d="M338.936 21.4015L322.042 5.06178L320.404 3.47794L307.687 15.7778L301.873 21.4015C301.266 21.9885 301.266 22.9396 301.873 23.5266L313.491 34.764L320.404 41.4502L333.121 29.1503L333.318 28.9599L338.936 23.5266C339.542 22.9396 339.542 21.9885 338.936 21.4015ZM320.404 28.0777L314.6 22.4641L320.404 16.8504L326.208 22.4641L320.404 28.0777Z" fill="#2684FF"/>
<path fill-rule="evenodd" clip-rule="evenodd" d="M320.404 16.8504C316.604 13.1746 316.586 7.22092 320.363 3.52304L307.661 15.8029L314.574 22.4891L320.404 16.8504Z" fill="url(#paint1_linear_564_4001)"/>
<path fill-rule="evenodd" clip-rule="evenodd" d="M326.223 22.449L320.404 28.0777C322.238 29.8506 323.268 32.2559 323.268 34.7639C323.268 37.272 322.238 39.6772 320.404 41.4502L333.136 29.1353L326.223 22.449Z" fill="url(#paint2_linear_564_4001)"/>
</g>
<g opacity="0.1">
<path fill-rule="evenodd" clip-rule="evenodd" d="M34.2741 57.5871H9.8479C7.59952 57.5871 5.77686 59.4086 5.77686 61.6556V86.0663C5.77686 88.3133 7.59952 90.1348 9.8479 90.1348H34.2741C36.5144 90.1234 38.3245 88.3052 38.3245 86.0663V61.6556C38.3245 59.4167 36.5144 57.5985 34.2741 57.5871ZM12.5576 61.6556H17.9822C19.4802 61.6556 20.6945 62.8699 20.6945 64.3679V83.354C20.6945 84.852 19.4802 86.0663 17.9822 86.0663H12.5576C11.0597 86.0663 9.84531 84.852 9.84531 83.354V64.3679C9.84531 62.8699 11.0597 61.6556 12.5576 61.6556ZM31.5438 61.6556H26.1191C24.6212 61.6556 23.4068 62.8699 23.4068 64.3679V73.861C23.4068 75.3589 24.6212 76.5733 26.1191 76.5733H31.5438C33.0417 76.5733 34.2561 75.3589 34.2561 73.861V64.3679C34.2561 62.8699 33.0417 61.6556 31.5438 61.6556Z" fill="url(#paint3_linear_564_4001)"/>
</g>
<g opacity="0.5">
<path d="M81.7215 54.8748C71.2494 54.8748 62.7354 63.3889 62.7354 73.861C62.7354 84.333 71.2494 92.8471 81.7215 92.8471C92.1935 92.8471 100.708 84.333 100.708 73.861C100.708 63.3889 92.1935 54.8748 81.7215 54.8748Z" fill="#FDDD4C"/>
<path d="M73.4066 78.8111C72.9914 78.1826 74.0356 77.2313 73.6109 76.4327C73.3661 75.972 72.9659 75.685 72.4853 75.6247C72.0241 75.5668 71.549 75.7357 71.2461 76.0657C70.7679 76.586 70.6936 77.2943 70.7861 77.5449C70.8199 77.6368 70.8731 77.6619 70.9112 77.6672C71.1716 77.7015 71.3182 77.0331 71.4081 76.8939C71.6567 76.5102 72.2212 76.3941 72.6111 76.6463C73.3503 77.1244 72.7093 77.8971 72.7646 78.5498C72.8184 79.1853 73.2144 79.4406 73.5698 79.4675C73.9156 79.4806 74.1574 79.2885 74.2184 79.1483C74.3648 78.8135 73.7482 79.3283 73.4066 78.8111Z" fill="black"/>
<path d="M88.8516 73.0416C88.6577 73.0148 88.4458 73.0154 88.2254 73.0416C88.0579 72.8304 87.908 72.4884 87.8234 72.0893C87.6729 71.3792 87.6886 70.8648 88.1087 70.798C88.5288 70.7312 88.7319 71.1608 88.8825 71.8709C88.9834 72.3482 88.9641 72.7868 88.8516 73.0416Z" fill="black"/>
<path d="M84.2501 73.4641C84.2667 73.6249 84.2726 73.7876 84.2679 73.9374C84.6744 73.9612 84.9623 74.1543 85.039 74.2768C85.0783 74.3401 85.0626 74.3813 85.0499 74.4003C85.0078 74.4658 84.9176 74.4557 84.7287 74.4345C84.5637 74.416 84.386 74.3997 84.2013 74.4082C84.1008 74.7164 83.8028 74.7452 83.5935 74.5173C83.4472 74.5619 83.1599 74.7453 83.0743 74.5459C83.0736 74.447 83.177 74.3032 83.3644 74.1763C83.2365 73.9323 83.1508 73.6712 83.1002 73.4008C82.8346 73.4486 82.5957 73.523 82.4084 73.5813C82.3205 73.6087 81.9726 73.7658 81.9319 73.5887C81.9047 73.4664 82.0951 73.2647 82.2964 73.1191C82.5213 72.9594 82.7708 72.8459 83.0295 72.7804C83.024 72.3953 83.1222 72.1266 83.402 72.0821C83.749 72.0269 83.964 72.294 84.1128 72.7887C84.5321 72.9052 84.9509 73.194 85.1357 73.4927C85.2077 73.6084 85.2216 73.6979 85.175 73.7451C85.0588 73.8655 84.415 73.5164 84.2501 73.4641Z" fill="black"/>
<path d="M87.0073 75.1951C87.2733 75.324 87.5658 75.2733 87.6614 75.0817C87.7569 74.8902 87.6184 74.6306 87.3524 74.5017C87.0865 74.3728 86.7939 74.4236 86.6984 74.6151C86.6029 74.8067 86.7413 75.0662 87.0073 75.1951Z" fill="black"/>
<path d="M88.3166 74.244C88.3214 73.951 88.501 73.7171 88.7168 73.7206C88.9326 73.7248 89.1036 73.9647 89.0988 74.2571C89.094 74.5495 88.9144 74.7834 88.6986 74.7798C88.4828 74.7762 88.3118 74.5363 88.3166 74.244Z" fill="black"/>
<path fill-rule="evenodd" clip-rule="evenodd" d="M94.1688 77.832C94.1671 77.8259 94.173 77.8469 94.1688 77.832C94.6022 77.832 95.2829 78.3236 95.2829 79.5117C95.2829 80.6938 94.786 82.0328 94.6687 82.3299C92.8788 86.5641 88.6068 88.9211 83.5181 88.7719C78.7739 88.6329 74.728 86.162 72.9574 82.1336C71.8868 82.1348 70.783 81.67 69.944 80.936C69.0596 80.1627 68.5143 79.162 68.4079 78.1184C68.3251 77.3057 68.4261 76.5496 68.6842 75.8903L67.6898 75.0585C63.1391 71.2658 77.3721 55.6501 81.924 59.5692C81.947 59.5889 83.4727 61.0663 83.4764 61.0699C85.6712 60.15 91.552 58.3986 91.5586 62.4758C91.561 63.8297 90.6869 65.4086 89.2862 66.8413C90.9049 68.323 90.4781 70.4278 90.7358 72.359L91.298 72.5129C92.3698 72.8095 93.1321 73.2051 93.5051 73.5918C93.8781 73.9778 94.063 74.352 94.1301 74.7906C94.193 75.1444 94.1845 75.7691 93.7118 76.4679C93.882 76.9186 94.0374 77.368 94.1688 77.832ZM72.877 81.0351C73.036 81.0386 73.1938 81.0285 73.3485 81.0023C75.0115 80.7224 75.4468 78.9394 75.1729 77.1887C74.8634 75.2118 73.5087 74.5149 72.5893 74.4654C72.3336 74.4522 72.096 74.4749 71.9001 74.5137C70.2589 74.8401 69.3322 76.2185 69.5148 78.0086C69.6798 79.6286 71.3398 80.9945 72.877 81.0351ZM69.1599 74.9994C69.7106 74.21 70.6107 73.6389 71.6323 73.4426C72.9326 69.9972 75.104 66.8228 77.9778 64.6382C80.1105 62.8821 82.4106 61.6225 82.4106 61.6225C82.4106 61.6225 81.172 60.2047 80.7978 60.1003C78.4965 59.4869 73.5263 62.8702 70.3526 67.3407C69.0686 69.1493 67.2304 72.3524 68.1093 73.9999C68.2175 74.204 68.8311 74.7285 69.1599 74.9994ZM87.8179 80.2438C87.8215 80.2808 87.7986 80.319 87.7653 80.3327C87.7653 80.3327 85.9161 81.1819 82.9789 80.285C83.0845 81.1655 84.1522 81.4991 84.8982 81.6198C88.5379 82.238 91.9406 80.1836 92.7065 79.6662C92.838 79.5774 92.7049 79.8058 92.6811 79.8393C91.7435 81.0333 89.2228 82.4158 85.9433 82.4152C84.5131 82.4147 83.0834 81.9176 82.5587 81.1532C81.7445 79.9676 82.5182 78.2365 83.8753 78.4167C86.1693 78.6724 88.521 78.4803 90.6446 77.5074C92.4962 76.6588 93.1956 75.7256 93.0904 74.9696C92.9273 73.7979 91.1901 73.6147 90.3121 73.3298C89.93 73.2051 89.7414 73.1055 89.6985 72.396C89.6798 72.0863 89.6254 71.0057 89.6054 70.5587C89.5704 69.7764 89.4748 68.7066 88.8026 68.265C88.6273 68.1498 88.4327 68.0943 88.2278 68.0836C88.0644 68.0758 87.9675 68.0982 87.9154 68.1103C87.9037 68.113 87.8942 68.1152 87.8868 68.1164C87.5239 68.1773 87.3014 68.361 87.0391 68.5775C87.024 68.59 87.0088 68.6026 86.9934 68.6153C86.1549 69.305 85.4471 69.4178 84.6594 69.3844C84.4141 69.3742 84.1612 69.3496 83.8945 69.3238C83.6492 69.3 83.3922 69.2751 83.1185 69.2591L82.7842 69.24C81.4652 69.1732 80.0507 70.2974 79.8155 71.8941C79.5528 73.6765 80.549 74.7682 81.1969 75.4782C81.357 75.6536 81.4958 75.8057 81.5891 75.9392C81.649 76.0198 81.7185 76.1331 81.7185 76.2411C81.7185 76.37 81.6338 76.4721 81.551 76.5592C80.2054 77.925 79.775 80.0953 80.2822 81.9039C80.3456 82.1294 80.426 82.3454 80.521 82.5519C81.7106 85.2961 85.4017 86.5743 89.007 85.4119C91.5337 84.5972 93.7662 82.6285 94.2208 79.9127C94.329 79.205 94.17 78.9317 93.9536 78.7998C93.7245 78.6608 93.4501 78.7091 93.4501 78.7091C93.4501 78.7091 93.3249 77.8636 92.9707 77.095C91.9195 77.9137 90.5666 78.4889 89.5365 78.7807C87.8861 79.2481 86.1034 79.43 84.398 79.2096C83.7063 79.1203 83.2415 79.0602 83.0423 79.699C85.3171 80.5213 87.7248 80.1692 87.7248 80.1692C87.7714 80.1645 87.8131 80.1979 87.8179 80.2438ZM81.2548 64.2874C80.0108 64.9157 78.6216 66.0345 77.4936 67.3216C77.4537 67.3675 77.513 67.4308 77.5619 67.3956C78.5364 66.6957 79.8723 66.0452 81.6224 65.624C83.5828 65.152 85.47 65.3501 86.6228 65.6108C86.6808 65.624 86.7171 65.5255 86.6657 65.4969C85.9041 65.075 84.7349 64.7886 83.9056 64.7826C83.8651 64.782 83.8421 64.7355 83.8663 64.7033C84.0095 64.5129 84.206 64.3249 84.3855 64.1889C84.4254 64.1579 84.4013 64.094 84.3505 64.097C83.3188 64.1595 80.9623 65.234 80.9707 65.1949C81.0312 64.9085 81.2216 64.5302 81.3201 64.3536C81.3437 64.3118 81.2977 64.2659 81.2548 64.2874Z" fill="black"/>
</g>
<circle cx="141.392" cy="73.8609" r="18.9861" fill="#0F287F"/>
<path fill-rule="evenodd" clip-rule="evenodd" d="M134.611 63.0117L127.83 67.0802L134.611 71.1486L127.83 75.2171L134.611 79.2855L141.392 75.2171L148.172 79.2855L154.953 75.2171L148.172 71.1486L154.953 67.0802L148.172 63.0117L141.392 67.0802L134.611 63.0117ZM141.392 67.0802L148.172 71.1486L141.392 75.2171L134.611 71.1486L141.392 67.0802Z" fill="#DAF8FE"/>
<path d="M134.611 81.9979L141.392 77.9294L148.172 81.9979L141.392 86.0663L134.611 81.9979Z" fill="#DAF8FE"/>
<circle cx="201.063" cy="73.8609" r="18.9861" fill="url(#paint4_linear_564_4001)"/>
<path d="M208.133 79.6674L208.977 74.3086H203.701V70.8326C203.701 69.3662 204.436 67.936 206.799 67.936H209.2V63.3738C209.2 63.3738 207.022 63.0117 204.942 63.0117C200.595 63.0117 197.756 65.5788 197.756 70.2243V74.3086H192.926V79.6674H197.756V92.6226C198.726 92.7711 199.718 92.8471 200.728 92.8471C201.739 92.8471 202.731 92.7711 203.701 92.6226V79.6674H208.133Z" fill="white"/>
<path d="M255.022 90.1348C250.635 90.1348 246.545 88.8588 243.103 86.6571C246.026 86.8462 251.183 86.3933 254.391 83.3334C249.565 83.1119 247.389 79.4107 247.105 77.829C247.515 77.9872 249.471 78.177 250.575 77.7341C245.023 76.3422 244.172 71.4705 244.361 69.9837C245.402 70.7113 247.168 70.9643 247.862 70.9011C242.689 67.1998 244.55 61.6322 245.465 60.4301C249.177 65.573 254.74 68.4615 261.623 68.6222C261.493 68.053 261.425 67.4605 261.425 66.8519C261.425 62.4841 264.955 58.9433 269.31 58.9433C271.586 58.9433 273.636 59.9099 275.075 61.456C276.596 61.0997 278.884 60.2656 280.003 59.5443C279.439 61.5689 277.683 63.2579 276.622 63.8838C276.613 63.8624 276.63 63.9051 276.622 63.8838C277.554 63.7427 280.078 63.2577 281.075 62.5812C280.582 63.7186 278.721 65.6097 277.194 66.6685C277.478 79.2016 267.889 90.1348 255.022 90.1348Z" fill="#47ACDF"/>
<g opacity="0.4">
<path d="M334.644 72.5045C336.516 72.5045 338.034 70.9867 338.034 69.1144C338.034 67.2421 336.516 65.7243 334.644 65.7243C332.771 65.7243 331.253 67.2422 331.253 69.1147V72.5045H334.644ZM325.151 72.5045C327.023 72.5045 328.541 70.9866 328.541 69.1141V59.6216C328.541 57.7492 327.023 56.2312 325.151 56.2312C323.278 56.2312 321.76 57.7492 321.76 59.6216V69.1141C321.76 70.9866 323.278 72.5045 325.151 72.5045Z" fill="#2EB67D"/>
<path d="M306.164 75.2174C304.292 75.2174 302.774 76.7352 302.774 78.6075C302.774 80.4798 304.292 81.9976 306.164 81.9976C308.037 81.9976 309.555 80.4797 309.555 78.6072V75.2174H306.164ZM315.657 75.2174C313.785 75.2174 312.267 76.7353 312.267 78.6078V88.1003C312.267 89.9727 313.785 91.4907 315.657 91.4907C317.53 91.4907 319.048 89.9727 319.048 88.1003V78.6078C319.048 76.7353 317.53 75.2174 315.657 75.2174Z" fill="#E01E5A"/>
<path d="M321.76 88.1008C321.76 89.9731 323.278 91.4909 325.15 91.4909C327.022 91.4909 328.54 89.973 328.54 88.1007C328.54 86.2282 327.022 84.7102 325.15 84.7102L321.76 84.7102L321.76 88.1008ZM321.76 78.6075C321.76 80.4799 323.278 81.9979 325.15 81.9979L334.643 81.9979C336.515 81.9979 338.033 80.4799 338.033 78.6075C338.033 76.735 336.515 75.2171 334.643 75.2171L325.15 75.2171C323.278 75.2171 321.76 76.735 321.76 78.6075Z" fill="#ECB22E"/>
<path d="M319.048 59.6211C319.048 57.7488 317.53 56.231 315.658 56.231C313.785 56.231 312.267 57.7489 312.267 59.6212C312.267 61.4937 313.785 63.0117 315.658 63.0117L319.048 63.0117L319.048 59.6211ZM319.048 69.1144C319.048 67.242 317.53 65.724 315.657 65.724L306.165 65.724C304.292 65.724 302.774 67.242 302.774 69.1144C302.774 70.9869 304.292 72.5048 306.165 72.5048L315.657 72.5048C317.53 72.5048 319.048 70.9869 319.048 69.1144Z" fill="#36C5F0"/>
</g>
<g opacity="0.1">
<path d="M37.91 134.751C38.1654 134.292 38.3241 133.776 38.3241 133.311V117.204C38.3241 116.74 38.1656 116.223 37.9101 115.765L22.0503 125.258L37.91 134.751Z" fill="#00599C"/>
<path d="M23.4595 143.896L36.9147 135.842C37.3023 135.61 37.6545 135.21 37.9099 134.751L22.0502 125.258L6.19043 134.751C6.44581 135.21 6.7982 135.61 7.18569 135.842L20.6408 143.896C21.4159 144.36 22.6844 144.36 23.4595 143.896Z" fill="#004482"/>
<path d="M37.9105 115.765C37.6551 115.306 37.3027 114.905 36.9152 114.673L23.46 106.62C22.6849 106.156 21.4164 106.156 20.6414 106.62L7.18619 114.673C6.411 115.137 5.77686 116.276 5.77686 117.204V133.311C5.77686 133.775 5.93545 134.292 6.19093 134.751L22.0507 125.258L37.9105 115.765Z" fill="#659AD2"/>
<path d="M22.1026 136.107C16.0915 136.107 11.2012 131.24 11.2012 125.258C11.2012 119.276 16.0915 114.409 22.1026 114.409C25.9097 114.409 29.4651 116.41 31.4337 119.646L26.7651 122.446C25.7787 120.831 24.0031 119.833 22.1026 119.833C19.097 119.833 16.6519 122.267 16.6519 125.258C16.6519 128.249 19.097 130.682 22.1026 130.682C23.998 130.682 25.7691 129.69 26.7572 128.083L31.4357 130.867C29.4674 134.105 25.911 136.107 22.1026 136.107Z" fill="white"/>
<path d="M31.5436 124.573H30.1873V123.224H28.8313V124.573H27.4751V125.922H28.8313V127.271H30.1873V125.922H31.5436V124.573Z" fill="white"/>
<path d="M36.9684 124.58H35.6121V123.224H34.2561V124.58H32.8999V125.936H34.2561V127.292H35.6121V125.936H36.9684V124.58Z" fill="white"/>
</g>
<g opacity="0.5">
<path fill-rule="evenodd" clip-rule="evenodd" d="M81.7212 125.258C81.7212 122.262 84.1499 119.833 87.1458 119.833C90.1417 119.833 92.5704 122.262 92.5704 125.258C92.5704 128.254 90.1417 130.682 87.1458 130.682C84.1499 130.682 81.7212 128.254 81.7212 125.258Z" fill="#1ABCFE"/>
<path fill-rule="evenodd" clip-rule="evenodd" d="M70.8721 136.107C70.8721 133.111 73.3008 130.682 76.2967 130.682H81.7213V136.107C81.7213 139.103 79.2926 141.532 76.2967 141.532C73.3008 141.532 70.8721 139.103 70.8721 136.107Z" fill="#0ACF83"/>
<path fill-rule="evenodd" clip-rule="evenodd" d="M81.7212 108.984V119.833H87.1458C90.1417 119.833 92.5704 117.405 92.5704 114.409C92.5704 111.413 90.1417 108.984 87.1458 108.984H81.7212Z" fill="#FF7262"/>
<path fill-rule="evenodd" clip-rule="evenodd" d="M70.8721 114.409C70.8721 117.405 73.3008 119.833 76.2967 119.833H81.7213V108.984H76.2967C73.3008 108.984 70.8721 111.413 70.8721 114.409Z" fill="#F24E1E"/>
<path fill-rule="evenodd" clip-rule="evenodd" d="M70.8721 125.258C70.8721 128.254 73.3008 130.682 76.2967 130.682H81.7213V119.833H76.2967C73.3008 119.833 70.8721 122.262 70.8721 125.258Z" fill="#A259FF"/>
</g>
<path fill-rule="evenodd" clip-rule="evenodd" d="M141.392 144.244C151.878 144.244 160.378 135.744 160.378 125.258C160.378 114.772 151.878 106.272 141.392 106.272C130.906 106.272 122.406 114.772 122.406 125.258C122.406 135.744 130.906 144.244 141.392 144.244Z" fill="white"/>
<path fill-rule="evenodd" clip-rule="evenodd" d="M131.899 131.135H141.392V140.176L131.899 131.135Z" fill="#0055FF"/>
<path d="M141.392 122.093H131.899V131.134H150.885L141.392 122.093Z" fill="#00AAFF"/>
<path d="M131.899 113.052L141.392 122.093H150.885V113.052H131.899Z" fill="#88DDFF"/>
<path d="M182.077 119.291C182.077 114.734 182.077 112.455 182.964 110.715C183.744 109.183 184.988 107.939 186.519 107.159C188.26 106.272 190.539 106.272 195.096 106.272H207.03C211.587 106.272 213.866 106.272 215.606 107.159C217.137 107.939 218.382 109.183 219.162 110.715C220.049 112.455 220.049 114.734 220.049 119.291V131.225C220.049 135.782 220.049 138.061 219.162 139.801C218.382 141.332 217.137 142.577 215.606 143.357C213.866 144.244 211.587 144.244 207.03 144.244H195.096C190.539 144.244 188.26 144.244 186.519 143.357C184.988 142.577 183.744 141.332 182.964 139.801C182.077 138.061 182.077 135.782 182.077 131.225V119.291Z" fill="white"/>
<path d="M211.418 116.226C209.487 115.377 207.422 114.76 205.263 114.409C204.998 114.859 204.688 115.465 204.475 115.947C202.18 115.622 199.906 115.622 197.653 115.947C197.439 115.465 197.123 114.859 196.855 114.409C194.694 114.76 192.626 115.379 190.695 116.23C186.8 121.761 185.744 127.154 186.272 132.47C188.855 134.283 191.359 135.384 193.821 136.105C194.429 135.319 194.971 134.484 195.438 133.603C194.548 133.286 193.697 132.894 192.892 132.439C193.105 132.29 193.314 132.135 193.516 131.975C198.425 134.132 203.759 134.132 208.61 131.975C208.814 132.135 209.022 132.29 209.234 132.439C208.426 132.896 207.572 133.288 206.683 133.605C207.15 134.484 207.69 135.321 208.3 136.107C210.764 135.386 213.27 134.285 215.854 132.47C216.473 126.307 214.795 120.964 211.418 116.226ZM196.107 129.201C194.633 129.201 193.424 127.908 193.424 126.334C193.424 124.76 194.607 123.465 196.107 123.465C197.606 123.465 198.815 124.758 198.789 126.334C198.791 127.908 197.606 129.201 196.107 129.201ZM206.019 129.201C204.545 129.201 203.337 127.908 203.337 126.334C203.337 124.76 204.519 123.465 206.019 123.465C207.518 123.465 208.727 124.758 208.701 126.334C208.701 127.908 207.518 129.201 206.019 129.201Z" fill="#5865F2"/>
<path d="M250.496 130.401C250.707 128.646 251.427 127.664 252.783 126.657C254.724 125.293 257.148 126.064 257.148 126.064V121.487C257.737 121.472 258.326 121.507 258.909 121.592V127.482C258.909 127.482 256.486 126.71 254.546 128.075C253.19 129.082 252.469 130.065 252.258 131.819C252.251 132.772 252.43 134.018 253.254 135.095C253.05 134.99 252.842 134.871 252.631 134.738C250.817 133.52 250.487 131.692 250.496 130.401ZM268.918 113.024C267.583 111.561 267.078 110.084 266.896 109.047H268.575C268.575 109.047 268.24 111.767 270.68 114.442L270.714 114.478C270.056 114.064 269.453 113.576 268.918 113.024ZM277.007 117.171V122.943C277.007 122.943 274.864 122.859 273.278 122.456C271.064 121.891 269.641 121.026 269.641 121.026C269.641 121.026 268.658 120.409 268.579 120.366V132.285C268.579 132.949 268.397 134.606 267.843 135.988C267.119 137.797 266.003 138.984 265.798 139.226C265.798 139.226 264.44 140.831 262.045 141.911C259.886 142.886 257.99 142.861 257.424 142.886C257.424 142.886 254.147 143.016 251.198 141.099C250.561 140.677 249.965 140.199 249.42 139.671L249.435 139.681C252.384 141.597 255.66 141.468 255.66 141.468C256.228 141.443 258.123 141.468 260.282 140.493C262.675 139.412 264.035 137.808 264.035 137.808C264.238 137.565 265.359 136.378 266.08 134.569C266.632 133.188 266.815 131.53 266.815 130.866V118.948C266.895 118.992 267.877 119.609 267.877 119.609C267.877 119.609 269.301 120.475 271.515 121.039C273.102 121.442 275.244 121.526 275.244 121.526V117.003C275.977 117.167 276.602 117.212 277.007 117.171Z" fill="#EE1D52"/>
<path d="M275.245 117.003V121.525C275.245 121.525 273.103 121.441 271.516 121.037C269.302 120.473 267.878 119.608 267.878 119.608C267.878 119.608 266.896 118.99 266.816 118.947V130.867C266.816 131.531 266.635 133.189 266.08 134.571C265.357 136.38 264.241 137.567 264.035 137.809C264.035 137.809 262.677 139.414 260.283 140.494C258.124 141.469 256.229 141.444 255.661 141.469C255.661 141.469 252.385 141.599 249.436 139.683L249.421 139.672C249.11 139.37 248.817 139.052 248.543 138.718C247.602 137.571 247.025 136.214 246.88 135.827C246.88 135.825 246.88 135.824 246.88 135.822C246.647 135.149 246.157 133.533 246.224 131.968C246.342 129.207 247.314 127.512 247.571 127.088C248.251 125.93 249.135 124.894 250.185 124.026C251.111 123.277 252.161 122.681 253.292 122.263C254.514 121.772 255.823 121.508 257.148 121.487V126.064C257.148 126.064 254.724 125.296 252.784 126.657C251.428 127.664 250.708 128.646 250.496 130.401C250.488 131.692 250.818 133.52 252.63 134.739C252.842 134.873 253.049 134.992 253.253 135.095C253.57 135.507 253.955 135.866 254.394 136.157C256.164 137.278 257.647 137.356 259.545 136.628C260.809 136.141 261.762 135.045 262.203 133.829C262.481 133.071 262.477 132.307 262.477 131.517V109.047H266.892C267.075 110.084 267.579 111.561 268.914 113.024C269.45 113.576 270.053 114.064 270.71 114.478C270.905 114.679 271.898 115.673 273.173 116.283C273.833 116.598 274.528 116.84 275.245 117.003Z" fill="black"/>
<path d="M245.123 134.421V134.425L245.233 134.722C245.22 134.687 245.179 134.582 245.123 134.421Z" fill="#69C9D0"/>
<path d="M253.292 122.263C252.161 122.681 251.111 123.277 250.185 124.026C249.135 124.896 248.251 125.934 247.571 127.094C247.314 127.517 246.343 129.214 246.225 131.975C246.158 133.54 246.648 135.155 246.881 135.828C246.881 135.83 246.881 135.832 246.881 135.833C247.028 136.217 247.603 137.574 248.544 138.725C248.817 139.059 249.111 139.377 249.422 139.678C248.424 139.017 247.534 138.218 246.782 137.306C245.849 136.168 245.273 134.825 245.123 134.429C245.123 134.426 245.123 134.423 245.123 134.421V134.416C244.889 133.744 244.398 132.127 244.466 130.56C244.584 127.799 245.556 126.104 245.813 125.679C246.492 124.519 247.376 123.481 248.426 122.611C249.352 121.862 250.402 121.266 251.533 120.848C252.238 120.568 252.973 120.361 253.725 120.231C254.857 120.042 256.014 120.025 257.151 120.183V121.487C255.825 121.508 254.515 121.771 253.292 122.263Z" fill="#69C9D0"/>
<path d="M266.896 109.047H262.48V131.518C262.48 132.308 262.48 133.069 262.207 133.83C261.761 135.045 260.812 136.141 259.548 136.628C257.65 137.359 256.167 137.278 254.397 136.157C253.958 135.867 253.571 135.51 253.253 135.099C254.761 135.87 256.111 135.856 257.783 135.213C259.046 134.727 259.996 133.63 260.441 132.415C260.719 131.656 260.715 130.892 260.715 130.103V107.628H266.812C266.812 107.628 266.743 108.186 266.896 109.047ZM275.245 115.753V117.003C274.529 116.84 273.835 116.598 273.177 116.283C271.902 115.673 270.908 114.679 270.714 114.478C270.939 114.62 271.173 114.749 271.414 114.865C272.965 115.607 274.492 115.828 275.245 115.753Z" fill="#69C9D0"/>
<g opacity="0.4">
<circle cx="320.404" cy="125.258" r="18.9861" fill="#028CB0"/>
<path d="M307.46 125.258C307.46 130.387 310.444 134.805 314.758 136.905L308.585 119.991C307.843 121.648 307.46 123.443 307.46 125.258ZM320.404 138.202C321.907 138.202 323.353 137.938 324.707 137.467L324.615 137.295L320.634 126.394L316.755 137.674C317.902 138.018 319.13 138.202 320.404 138.202ZM322.183 119.187L326.865 133.107L328.161 128.792C328.712 127.002 329.137 125.717 329.137 124.604C329.137 122.997 328.563 121.896 328.081 121.046C327.415 119.968 326.807 119.061 326.807 118.006C326.807 116.812 327.702 115.711 328.987 115.711H329.148C326.763 113.521 323.642 112.308 320.404 112.314C318.26 112.313 316.15 112.846 314.263 113.864C312.376 114.881 310.772 116.352 309.594 118.143L310.421 118.166C311.775 118.166 313.863 117.994 313.863 117.994C314.575 117.96 314.655 118.981 313.955 119.061C313.955 119.061 313.255 119.153 312.463 119.187L317.191 133.21L320.025 124.718L318.006 119.187C317.553 119.163 317.102 119.124 316.652 119.073C315.952 119.027 316.032 117.96 316.732 117.994C316.732 117.994 318.866 118.166 320.14 118.166C321.494 118.166 323.583 117.994 323.583 117.994C324.283 117.96 324.374 118.981 323.674 119.061C323.674 119.061 322.974 119.142 322.183 119.187ZM326.91 136.446C328.869 135.307 330.494 133.675 331.623 131.712C332.753 129.748 333.348 127.523 333.348 125.258C333.348 123.009 332.774 120.897 331.764 119.05C331.969 121.082 331.662 123.134 330.869 125.017L326.91 136.446ZM320.404 140.176C316.448 140.176 312.653 138.604 309.856 135.806C307.058 133.009 305.486 129.214 305.486 125.258C305.486 121.301 307.058 117.507 309.856 114.709C312.653 111.912 316.448 110.34 320.404 110.34C324.36 110.34 328.155 111.912 330.952 114.709C333.75 117.507 335.322 121.301 335.322 125.258C335.322 129.214 333.75 133.009 330.952 135.806C328.155 138.604 324.36 140.176 320.404 140.176Z" fill="white"/>
</g>
<g opacity="0.04">
<path d="M25.6833 176.622C25.6833 174.677 24.0568 173.1 22.0503 173.1C20.0439 173.1 18.4173 174.677 18.4173 176.622C18.4173 178.568 20.0439 180.145 22.0503 180.145C24.0568 180.145 25.6833 178.568 25.6833 176.622Z" fill="#53C1DE"/>
<path fill-rule="evenodd" clip-rule="evenodd" d="M33.8493 170.082C34.6166 167.06 35.5809 161.454 32.1813 159.554C28.7976 157.662 24.3943 161.287 22.0692 163.464C19.7508 161.309 15.2239 157.699 11.8271 159.605C8.4447 161.504 9.48777 167.016 10.272 170.058C7.11677 170.927 1.70801 172.798 1.70801 176.622C1.70801 180.435 7.11114 182.471 10.2477 183.339C9.46056 186.398 8.46973 191.831 11.8565 193.725C15.2658 195.632 19.7788 192.107 22.1254 189.907C24.4654 192.096 28.8265 195.644 32.2108 193.744C35.6059 191.839 34.7216 186.308 33.9374 183.249C36.9778 182.379 42.3926 180.387 42.3926 176.622C42.3926 172.835 36.9549 170.948 33.8493 170.082ZM33.464 181.628C32.949 180.047 32.254 178.367 31.4038 176.63C32.2153 174.935 32.8833 173.276 33.3839 171.706C35.6605 172.346 40.6547 173.809 40.6547 176.622C40.6547 179.462 35.8622 180.938 33.464 181.628ZM31.3399 192.286C28.8148 193.703 25.0639 190.311 23.3357 188.699C24.4821 187.483 25.6278 186.069 26.746 184.5C28.7129 184.331 30.5711 184.054 32.2562 183.676C32.8082 185.84 33.8762 190.862 31.3399 192.286ZM12.7249 192.265C10.1995 190.854 11.3538 186.005 11.9328 183.752C13.5992 184.109 15.4439 184.366 17.4155 184.521C18.541 186.057 19.7198 187.469 20.9078 188.705C19.4401 190.082 15.2621 193.684 12.7249 192.265ZM3.4459 176.622C3.4459 173.771 8.4102 172.32 10.7387 171.681C11.2479 173.287 11.9157 174.965 12.7216 176.663C11.9053 178.386 11.2279 180.091 10.714 181.716C8.49378 181.1 3.4459 179.474 3.4459 176.622ZM12.6979 161.064C15.2336 159.641 19.1681 163.107 20.8513 164.666C19.6694 165.897 18.5014 167.298 17.3856 168.825C15.4722 168.997 13.6405 169.273 11.9566 169.643C11.3248 167.19 10.1649 162.485 12.6979 161.064ZM27.9892 170.657C29.2874 170.815 30.5311 171.027 31.6989 171.285C31.3484 172.375 30.9114 173.514 30.3968 174.682C29.6507 173.309 28.8499 171.965 27.9892 170.657ZM22.0697 165.871C22.8713 166.713 23.6742 167.653 24.4639 168.673C22.862 168.6 21.2574 168.599 19.6554 168.672C20.4458 167.661 21.2555 166.722 22.0697 165.871ZM13.7188 174.681C13.2126 173.517 12.7796 172.372 12.426 171.267C13.5868 171.015 14.8247 170.81 16.1144 170.653C15.2514 171.959 14.4519 173.303 13.7188 174.681ZM16.1515 182.711C14.8191 182.567 13.5625 182.371 12.402 182.126C12.7612 181.002 13.2038 179.833 13.7208 178.644C14.464 180.036 15.2756 181.393 16.1515 182.711ZM22.1178 187.492C21.2941 186.631 20.4725 185.677 19.67 184.652C21.2811 184.713 22.8954 184.714 24.5062 184.644C23.714 185.688 22.914 186.642 22.1178 187.492ZM30.4133 178.583C30.9571 179.785 31.4155 180.948 31.7796 182.053C30.5999 182.314 29.3263 182.525 27.9844 182.681C28.8514 181.348 29.6649 179.982 30.4133 178.583ZM25.776 182.885C23.3117 183.056 20.8319 183.054 18.3667 182.899C16.9659 180.915 15.719 178.829 14.6426 176.663C15.7137 174.501 16.9516 172.419 18.3458 170.438C20.8129 170.257 23.295 170.257 25.762 170.439C27.1441 172.42 28.3801 174.497 29.4761 176.639C28.3931 178.799 27.1488 180.886 25.776 182.885ZM31.3132 161.014C33.8496 162.432 32.7206 167.47 32.1665 169.66C30.4787 169.283 28.6457 169.002 26.7267 168.827C25.6087 167.284 24.4504 165.88 23.2876 164.666C24.9925 163.072 28.8013 159.609 31.3132 161.014Z" fill="#53C1DE"/>
</g>
<g opacity="0.2">
<path d="M89.569 184.19C91.0704 184.037 92.2094 182.764 92.1576 181.237C92.1059 179.71 90.8115 178.489 89.2583 178.489H89.1549C87.5497 178.54 86.3073 179.863 86.3591 181.441C86.4109 182.204 86.7214 182.866 87.1874 183.324C85.4271 186.735 82.735 189.229 78.6967 191.316C75.9527 192.741 73.1053 193.25 70.2578 192.894C67.928 192.588 66.116 191.57 64.9768 189.89C63.3202 187.396 63.1649 184.698 64.5628 182.001C65.5465 180.067 67.0995 178.641 68.0833 177.929C67.8762 177.267 67.5655 176.147 67.4102 175.333C59.9031 180.677 60.6798 187.905 62.9578 191.316C64.6662 193.861 68.1351 195.439 71.9663 195.439C73.0017 195.439 74.0371 195.337 75.0726 195.083C81.6996 193.81 86.7216 189.941 89.569 184.19ZM98.6811 177.878C94.7463 173.348 88.9478 170.854 82.3208 170.854H81.4925C81.0265 169.937 80.0428 169.326 78.9556 169.326H78.852C77.2472 169.377 76.0047 170.701 76.0563 172.279C76.1082 173.806 77.4024 175.027 78.9556 175.027H79.0591C80.1981 174.976 81.1818 174.264 81.596 173.297H82.5279C86.4627 173.297 90.1903 174.416 93.5556 176.605C96.1442 178.285 98.0081 180.474 99.0434 183.121C99.9236 185.258 99.8718 187.345 98.9398 189.127C97.4903 191.825 95.057 193.301 91.847 193.301C89.7761 193.301 87.8088 192.69 86.7732 192.232C86.2038 192.741 85.1683 193.555 84.4434 194.064C86.6698 195.082 88.9478 195.642 91.1222 195.642C96.0924 195.642 99.7683 192.944 101.166 190.247C102.668 187.294 102.564 182.204 98.6811 177.878ZM72.3804 185.055C72.4322 186.582 73.7265 187.803 75.2797 187.803H75.3833C76.9883 187.753 78.2307 186.429 78.1789 184.851C78.1273 183.324 76.8328 182.103 75.2797 182.103H75.1762C75.0726 182.103 74.9172 182.103 74.8139 182.153C72.6911 178.692 71.811 174.926 72.1217 170.853C72.3286 167.799 73.3642 165.152 75.1762 162.964C76.6776 161.08 79.5768 160.164 81.5443 160.113C87.0321 160.011 89.3618 166.73 89.5172 169.428C90.1903 169.581 91.3293 169.937 92.1059 170.192C91.4845 161.946 86.3073 157.67 81.3372 157.67C76.6776 157.67 72.3804 160.979 70.6718 165.865C68.2904 172.38 69.8435 178.641 72.7428 183.579C72.484 183.935 72.3286 184.495 72.3804 185.055V185.055Z" fill="#764ABC"/>
</g>
<circle cx="141.392" cy="176.655" r="18.9861" fill="url(#paint5_linear_564_4001)"/>
<path d="M150.867 168.801C151.036 167.709 149.997 166.846 149.026 167.273L129.681 175.766C128.985 176.072 129.036 177.127 129.758 177.357L133.747 178.627C134.509 178.87 135.333 178.745 135.998 178.285L144.992 172.071C145.264 171.884 145.559 172.27 145.328 172.508L138.853 179.183C138.225 179.831 138.35 180.928 139.105 181.402L146.354 185.947C147.167 186.457 148.213 185.945 148.365 184.963L150.867 168.801Z" fill="white"/>
<path d="M202.419 161.737L202.419 183.048L220.049 161.737H202.419Z" fill="#07363D"/>
<path d="M190.892 171.23C195.714 171.23 199.707 166.369 199.707 161.737H182.077C182.077 166.369 186.069 171.23 190.892 171.23Z" fill="#07363D"/>
<path d="M202.419 191.572C202.419 186.94 206.411 182.079 211.234 182.079C216.057 182.079 220.049 186.94 220.049 191.572H202.419Z" fill="#07363D"/>
<path d="M199.707 191.572V170.261L182.077 191.572H199.707Z" fill="#07363D"/>
<g opacity="0.2">
<path d="M241.747 171.17C241.747 166.444 241.747 164.081 242.667 162.276C243.476 160.688 244.767 159.397 246.354 158.588C248.159 157.669 250.522 157.669 255.248 157.669H266.218C270.944 157.669 273.307 157.669 275.112 158.588C276.7 159.397 277.991 160.688 278.8 162.276C279.719 164.081 279.719 166.444 279.719 171.17V182.14C279.719 186.865 279.719 189.228 278.8 191.033C277.991 192.621 276.7 193.912 275.112 194.721C273.307 195.641 270.944 195.641 266.218 195.641H255.248C250.522 195.641 248.159 195.641 246.354 194.721C244.767 193.912 243.476 192.621 242.667 191.033C241.747 189.228 241.747 186.865 241.747 182.14V171.17Z" fill="white"/>
<path d="M245.815 186.907C245.815 187.986 246.697 188.86 247.783 188.86H247.811C246.709 188.86 245.815 187.986 245.815 186.907Z" fill="#FBBC05"/>
<path d="M262.723 171.773V176.871L269.597 171.327V166.402C269.597 165.323 268.715 164.449 267.629 164.449H252.737L252.724 171.773H262.723Z" fill="#FBBC05"/>
<path d="M262.723 181.972H252.707L252.696 188.86H267.629C268.717 188.86 269.597 187.987 269.597 186.908V182.462L262.723 176.873V181.972Z" fill="#34A853"/>
<path d="M252.738 164.449L245.815 171.773H252.726L252.738 164.449Z" fill="#EA4335"/>
<path d="M245.815 181.971V186.907C245.815 187.986 246.709 188.86 247.811 188.86H252.696L252.708 181.971H245.815Z" fill="#1967D2"/>
<path d="M252.726 171.773H245.815V181.971H252.708L252.726 171.773Z" fill="#4285F4"/>
<path d="M275.641 185.171V168.409C275.254 166.185 272.814 168.735 272.814 168.735L269.599 171.327V182.46L274.201 186.201C275.863 186.419 275.641 185.171 275.641 185.171Z" fill="#34A853"/>
<path d="M262.723 176.871L269.599 182.461V171.328L262.723 176.871Z" fill="#188038"/>
</g>
<g opacity="0.05">
<path d="M332.91 161.737C329.947 161.737 327.478 163.755 326.721 166.775C325.356 162.237 321.862 161.741 320.405 161.741C318.948 161.741 315.455 162.237 314.087 166.774C313.33 163.757 310.861 161.741 307.899 161.741C304.265 161.741 301.418 164.403 301.418 167.801C301.418 169.304 301.78 170.503 302.218 171.805L307.153 186.103C308.805 190.844 312.171 191.552 314.03 191.552C316.947 191.552 319.219 190.022 320.404 187.31C321.59 190.034 323.863 191.572 326.778 191.572C328.635 191.572 331.998 190.863 333.659 186.104C335.385 181.111 337.173 176.136 338.827 171.118C339.091 170.318 339.39 169.41 339.39 168.297C339.39 164.496 336.665 161.737 332.91 161.737ZM335.249 170.533L330.287 184.88C329.681 186.615 328.674 187.907 326.778 187.907C325.002 187.907 323.954 186.893 323.43 185.156L320.444 175.608H320.363L317.379 185.156C316.854 186.894 315.805 187.887 314.03 187.887C312.134 187.887 311.126 186.606 310.521 184.87L305.6 170.611C305.196 169.411 304.995 168.669 304.995 167.8C304.995 166.478 306.206 165.405 307.899 165.405C309.311 165.405 310.319 166.359 310.642 167.765L313.99 179.138H314.07L317.459 168.015C317.904 166.403 318.71 165.405 320.405 165.405C322.099 165.405 322.905 166.402 323.349 168.013L326.737 179.138H326.818L330.167 167.765C330.489 166.359 331.497 165.402 332.91 165.402C334.603 165.402 335.813 166.478 335.813 168.297C335.813 168.958 335.53 169.622 335.249 170.533Z" fill="#3192E7"/>
</g>
<defs>
<linearGradient id="paint0_linear_564_4001" x1="258.486" y1="22.3293" x2="247.295" y2="34.3424" gradientUnits="userSpaceOnUse">
<stop stop-color="#0052CC"/>
<stop offset="0.923" stop-color="#2684FF"/>
</linearGradient>
<linearGradient id="paint1_linear_564_4001" x1="319.368" y1="11.1716" x2="309.686" y2="15.3989" gradientUnits="userSpaceOnUse">
<stop offset="0.18" stop-color="#0052CC"/>
<stop offset="1" stop-color="#2684FF"/>
</linearGradient>
<linearGradient id="paint2_linear_564_4001" x1="321.513" y1="33.6913" x2="331.177" y2="29.4941" gradientUnits="userSpaceOnUse">
<stop offset="0.18" stop-color="#0052CC"/>
<stop offset="1" stop-color="#2684FF"/>
</linearGradient>
<linearGradient id="paint3_linear_564_4001" x1="22.061" y1="90.1348" x2="22.061" y2="57.5871" gradientUnits="userSpaceOnUse">
<stop stop-color="#0052CC"/>
<stop offset="0.51698" stop-color="#217EF8"/>
<stop offset="1" stop-color="#2684FF"/>
</linearGradient>
<linearGradient id="paint4_linear_564_4001" x1="201.063" y1="54.8748" x2="201.063" y2="92.7345" gradientUnits="userSpaceOnUse">
<stop stop-color="#18ACFE"/>
<stop offset="1" stop-color="#0163E0"/>
</linearGradient>
<linearGradient id="paint5_linear_564_4001" x1="141.392" y1="157.669" x2="141.392" y2="195.641" gradientUnits="userSpaceOnUse">
<stop stop-color="#37BBFE"/>
<stop offset="1" stop-color="#007DBB"/>
</linearGradient>
</defs>
</svg>
